<?xml version="1.0" encoding="utf-8"?>
<svg viewBox="0 0 240 240" xmlns="http://www.w3.org/2000/svg">
  <circle style="fill: rgb(15, 42, 156);" cx="120" cy="120" r="120"/>
  <path d="M 101.602 73.099 L 101.602 81.999 C 101.602 84.179 101.845 85.936 102.332 87.269 C 102.819 88.602 103.665 89.646 104.872 90.399 C 104.905 90.552 104.922 90.842 104.922 91.269 L 104.922 92.079 C 104.922 96.379 103.619 99.726 101.012 102.119 C 98.712 104.239 95.869 105.299 92.482 105.299 C 90.175 105.299 88.069 104.752 86.162 103.659 C 84.255 102.572 82.895 100.999 82.082 98.939 C 81.049 98.939 80.532 99.439 80.532 100.439 C 80.532 101.286 81.062 102.239 82.122 103.299 C 80.155 104.632 77.189 105.299 73.222 105.299 C 67.622 105.299 63.149 103.776 59.802 100.729 C 56.455 97.689 54.782 93.436 54.782 87.969 C 54.782 82.509 56.555 78.279 60.102 75.279 C 63.342 72.586 67.535 71.239 72.682 71.239 C 74.435 71.239 76.129 71.359 77.762 71.599 C 78.855 71.812 79.445 71.936 79.532 71.969 C 79.625 71.662 79.672 71.402 79.672 71.189 C 79.672 70.402 79.005 69.872 77.672 69.599 C 76.339 69.332 74.599 69.199 72.452 69.199 C 67.879 69.199 63.972 70.122 60.732 71.969 C 59.252 69.456 58.512 66.276 58.512 62.429 C 58.512 60.249 58.785 58.629 59.332 57.569 C 61.512 56.569 64.282 55.682 67.642 54.909 C 71.002 54.142 74.542 53.759 78.262 53.759 C 85.955 53.759 91.769 55.439 95.702 58.799 C 99.635 62.159 101.602 66.926 101.602 73.099 Z M 78.032 84.229 C 76.765 84.229 76.132 84.802 76.132 85.949 C 76.132 87.042 76.872 87.589 78.352 87.589 C 79.385 87.589 80.142 87.339 80.622 86.839 C 81.109 86.339 81.352 85.469 81.352 84.229 C 81.352 84.229 80.245 84.229 78.032 84.229 ZM 112.597 94.399 L 112.597 75.959 C 114.384 75.959 115.971 75.792 117.357 75.459 C 118.751 75.126 119.447 74.626 119.447 73.959 C 119.447 73.539 119.314 73.192 119.047 72.919 C 117.201 73.586 115.187 73.919 113.007 73.919 C 110.041 73.919 107.541 72.896 105.507 70.849 C 103.481 68.809 102.467 65.866 102.467 62.019 C 102.467 59.479 102.997 57.012 104.057 54.619 C 107.871 54.166 110.837 53.409 112.957 52.349 C 115.924 50.836 118.467 48.399 120.587 45.039 L 128.717 45.039 C 131.317 45.039 133.237 45.522 134.477 46.489 C 135.931 47.669 136.657 49.742 136.657 52.709 L 136.657 100.939 C 135.117 102.359 133.324 103.439 131.277 104.179 C 129.237 104.926 127.141 105.299 124.987 105.299 C 121.447 105.299 118.574 104.449 116.367 102.749 C 113.854 100.842 112.597 98.059 112.597 94.399 ZM 146.065 94.399 L 146.065 75.959 C 147.851 75.959 149.438 75.792 150.825 75.459 C 152.218 75.126 152.915 74.626 152.915 73.959 C 152.915 73.539 152.781 73.192 152.515 72.919 C 150.668 73.586 148.655 73.919 146.475 73.919 C 143.508 73.919 141.008 72.896 138.975 70.849 C 136.948 68.809 135.935 65.866 135.935 62.019 C 135.935 59.479 136.465 57.012 137.525 54.619 C 141.338 54.166 144.305 53.409 146.425 52.349 C 149.391 50.836 151.935 48.399 154.055 45.039 L 162.185 45.039 C 164.785 45.039 166.705 45.522 167.945 46.489 C 169.398 47.669 170.125 49.742 170.125 52.709 L 170.125 100.939 C 168.585 102.359 166.791 103.439 164.745 104.179 C 162.705 104.926 160.608 105.299 158.455 105.299 C 154.915 105.299 152.041 104.449 149.835 102.749 C 147.321 100.842 146.065 98.059 146.065 94.399 ZM 197.462 81.549 L 197.462 82.589 C 197.462 83.076 197.479 83.426 197.512 83.639 C 197.812 83.786 198.146 83.859 198.512 83.859 C 199.386 83.859 199.822 83.196 199.822 81.869 C 199.822 77.416 200.072 72.789 200.572 67.989 C 201.072 63.196 201.612 59.496 202.192 56.889 C 204.639 55.102 207.906 54.209 211.992 54.209 C 216.079 54.209 219.236 55.002 221.462 56.589 C 223.689 58.182 224.802 60.099 224.802 62.339 C 224.802 63.279 224.242 67.152 223.122 73.959 C 221.882 80.892 220.292 88.189 218.352 95.849 C 217.959 97.396 217.256 99.562 216.242 102.349 C 215.229 105.129 214.146 107.442 212.992 109.289 C 209.392 115.016 204.942 118.559 199.642 119.919 C 197.162 120.552 194.666 120.869 192.152 120.869 C 187.279 120.869 183.509 119.659 180.842 117.239 C 178.389 115.059 177.162 112.356 177.162 109.129 C 177.162 105.909 178.119 102.876 180.032 100.029 C 180.486 99.909 181.316 99.849 182.522 99.849 C 183.736 99.849 185.249 99.999 187.062 100.299 C 192.089 101.239 194.649 101.709 194.742 101.709 C 194.956 101.742 195.189 101.779 195.442 101.819 C 195.702 101.866 196.042 101.889 196.462 101.889 C 196.889 101.889 197.252 101.769 197.552 101.529 C 197.859 101.289 198.012 100.806 198.012 100.079 L 187.292 98.029 C 184.659 96.942 182.372 94.656 180.432 91.169 C 178.046 86.876 176.429 81.049 175.582 73.689 C 173.582 71.089 172.582 67.972 172.582 64.339 C 172.582 60.706 173.489 57.542 175.302 54.849 L 186.972 54.849 C 190.879 54.849 193.802 55.969 195.742 58.209 C 197.162 59.869 198.069 62.306 198.462 65.519 C 197.796 70.786 197.462 76.129 197.462 81.549 Z" transform="matrix(0.9993910193443298, -0.03490000218153, 0.03490000218153, 0.9993910193443298, -30.08803367614746, -5.839134216308594)" style="fill: rgb(255, 255, 255); white-space: pre;"/>
  <path d="M 72.752 105.039 C 69.305 105.039 66.555 104.419 64.502 103.179 C 62.209 101.872 61.062 99.946 61.062 97.399 L 61.062 77.019 L 62.412 77.019 C 63.859 77.019 64.582 76.539 64.582 75.579 C 64.582 75.466 64.555 75.292 64.502 75.059 L 57.282 75.059 C 55.602 72.652 54.762 69.682 54.762 66.149 C 54.762 62.616 55.602 59.559 57.282 56.979 L 61.062 56.979 C 61.762 52.172 63.645 48.492 66.712 45.939 C 69.785 43.392 73.872 42.119 78.972 42.119 C 82.619 42.119 85.789 42.639 88.482 43.679 C 91.182 44.726 93.152 45.916 94.392 47.249 C 94.685 48.202 94.832 49.359 94.832 50.719 L 94.832 51.549 C 94.832 54.536 94.399 57.159 93.532 59.419 C 91.532 60.199 88.735 60.589 85.142 60.589 C 83.662 60.589 82.045 60.486 80.292 60.279 C 78.539 60.079 77.242 59.879 76.402 59.679 C 76.202 59.879 76.102 60.166 76.102 60.539 C 76.102 61.032 76.795 61.489 78.182 61.909 C 79.575 62.329 81.829 62.539 84.942 62.539 C 88.055 62.539 90.612 62.366 92.612 62.019 C 92.819 62.486 93.015 63.362 93.202 64.649 C 93.389 65.942 93.482 67.209 93.482 68.449 C 93.482 71.116 92.989 73.319 92.002 75.059 L 83.962 75.059 L 83.962 102.049 C 80.809 104.042 77.072 105.039 72.752 105.039 ZM 119.735 105.829 C 111.708 105.829 105.378 103.596 100.745 99.129 C 95.992 94.642 93.615 88.496 93.615 80.689 C 93.615 72.882 96.062 66.689 100.955 62.109 C 105.475 57.849 111.198 55.719 118.125 55.719 C 125.052 55.719 130.605 57.626 134.785 61.439 C 138.972 65.246 141.065 69.929 141.065 75.489 C 141.065 80.449 139.342 84.189 135.895 86.709 C 132.708 89.082 128.365 90.269 122.865 90.269 C 118.745 90.269 115.268 89.416 112.435 87.709 C 112.202 87.882 112.085 88.199 112.085 88.659 C 112.085 89.532 113.228 90.329 115.515 91.049 C 117.802 91.836 120.402 92.229 123.315 92.229 C 126.228 92.229 128.878 91.859 131.265 91.119 C 133.658 90.379 135.578 89.502 137.025 88.489 C 137.725 89.096 138.285 90.219 138.705 91.859 C 139.125 93.492 139.335 94.982 139.335 96.329 C 139.335 97.676 139.202 98.872 138.935 99.919 C 136.682 101.832 134.365 103.192 131.985 103.999 C 128.625 105.219 124.542 105.829 119.735 105.829 Z M 119.165 76.409 C 120.612 76.409 121.335 75.859 121.335 74.759 C 121.335 73.712 120.568 73.189 119.035 73.189 C 117.502 73.189 116.618 74.016 116.385 75.669 C 117.198 76.162 118.125 76.409 119.165 76.409 ZM 187.051 74.449 L 187.051 82.969 C 187.051 85.056 187.281 86.736 187.741 88.009 C 188.208 89.282 189.018 90.282 190.171 91.009 C 190.204 91.156 190.221 91.429 190.221 91.829 L 190.221 92.619 C 190.221 96.732 188.974 99.932 186.481 102.219 C 184.281 104.246 181.558 105.259 178.311 105.259 C 176.111 105.259 174.098 104.739 172.271 103.699 C 170.444 102.652 169.141 101.146 168.361 99.179 C 167.374 99.179 166.881 99.656 166.881 100.609 C 166.881 101.422 167.388 102.336 168.401 103.349 C 166.521 104.622 163.684 105.259 159.891 105.259 C 154.531 105.259 150.248 103.802 147.041 100.889 C 143.841 97.982 142.241 93.912 142.241 88.679 C 142.241 83.452 143.938 79.406 147.331 76.539 C 150.431 73.959 154.441 72.669 159.361 72.669 C 161.041 72.669 162.664 72.786 164.231 73.019 C 165.278 73.219 165.844 73.332 165.931 73.359 C 166.018 73.072 166.061 72.829 166.061 72.629 C 166.061 71.876 165.421 71.366 164.141 71.099 C 162.868 70.839 161.204 70.709 159.151 70.709 C 154.771 70.709 151.031 71.592 147.931 73.359 C 146.511 70.959 145.801 67.919 145.801 64.239 C 145.801 62.152 146.064 60.602 146.591 59.589 C 148.678 58.629 151.328 57.782 154.541 57.049 C 157.754 56.309 161.144 55.939 164.711 55.939 C 172.071 55.939 177.634 57.546 181.401 60.759 C 185.168 63.979 187.051 68.542 187.051 74.449 Z M 164.491 85.099 C 163.278 85.099 162.671 85.649 162.671 86.749 C 162.671 87.789 163.381 88.309 164.801 88.309 C 165.781 88.309 166.504 88.072 166.971 87.599 C 167.431 87.119 167.661 86.286 167.661 85.099 C 167.661 85.099 166.604 85.099 164.491 85.099 ZM 194.65 89.569 L 194.65 77.019 L 197.35 77.019 C 198.797 77.019 199.52 76.539 199.52 75.579 C 199.52 75.466 199.49 75.292 199.43 75.059 L 189.7 75.059 C 189.06 73.032 188.74 70.766 188.74 68.259 C 188.74 65.752 188.93 63.716 189.31 62.149 C 190.957 61.109 193.23 59.516 196.13 57.369 C 196.943 55.402 198 52.276 199.3 47.989 C 199.473 47.409 199.677 46.842 199.91 46.289 C 202.17 45.709 204.75 45.419 207.65 45.419 C 210.543 45.419 213.397 45.722 216.21 46.329 L 216.21 56.979 L 223.72 56.979 C 225.4 59.532 226.24 62.532 226.24 65.979 C 226.24 67.539 226.023 69.146 225.59 70.799 C 225.157 72.452 224.533 73.859 223.72 75.019 L 217.51 75.019 L 217.51 81.579 C 217.51 85.286 219.06 87.139 222.16 87.139 L 224.03 87.139 C 224.637 89.339 224.94 91.252 224.94 92.879 C 224.94 96.872 223.687 99.936 221.18 102.069 C 218.673 104.196 215.037 105.259 210.27 105.259 C 205.51 105.259 201.717 103.936 198.89 101.289 C 196.063 98.636 194.65 94.729 194.65 89.569 Z" transform="matrix(0.9998480081558228, 0.017451001331210136, -0.017451001331210136, 0.9998480081558228, 3.8655850887298584, 51.927268981933594)" style="fill: rgb(255, 255, 255); white-space: pre;"/>
  <path d="M -34.284 165.228 C -34.024 165.228 -33.764 165.201 -33.504 165.148 C -33.244 165.095 -33.047 165.028 -32.914 164.948 L -32.914 163.288 L -34.394 163.418 C -34.781 163.451 -35.091 163.538 -35.324 163.678 C -35.557 163.811 -35.674 164.018 -35.674 164.298 C -35.674 164.585 -35.564 164.811 -35.344 164.978 C -35.131 165.145 -34.777 165.228 -34.284 165.228 Z M -34.394 158.048 C -33.767 158.048 -33.201 158.111 -32.694 158.238 C -32.181 158.365 -31.744 158.561 -31.384 158.828 C -31.024 159.088 -30.747 159.421 -30.554 159.828 C -30.354 160.241 -30.254 160.721 -30.254 161.268 L -30.254 165.338 C -30.254 165.651 -30.334 165.901 -30.494 166.088 C -30.661 166.275 -30.857 166.435 -31.084 166.568 C -31.457 166.795 -31.914 166.968 -32.454 167.088 C -32.994 167.208 -33.604 167.268 -34.284 167.268 C -35.524 167.268 -36.507 167.031 -37.234 166.558 C -37.967 166.085 -38.334 165.361 -38.334 164.388 C -38.334 163.561 -38.087 162.931 -37.594 162.498 C -37.107 162.065 -36.354 161.795 -35.334 161.688 L -32.934 161.438 L -32.934 161.238 C -32.934 160.851 -33.091 160.568 -33.404 160.388 C -33.717 160.208 -34.167 160.118 -34.754 160.118 C -35.207 160.118 -35.654 160.171 -36.094 160.278 C -36.534 160.391 -36.927 160.518 -37.274 160.658 C -37.421 160.565 -37.544 160.418 -37.644 160.218 C -37.744 160.018 -37.794 159.805 -37.794 159.578 C -37.794 159.051 -37.517 158.675 -36.964 158.448 C -36.617 158.315 -36.214 158.215 -35.754 158.148 C -35.294 158.081 -34.841 158.048 -34.394 158.048 ZM -23.524 160.228 C -24.171 160.228 -24.721 160.435 -25.174 160.848 C -25.634 161.261 -25.864 161.871 -25.864 162.678 C -25.864 163.478 -25.644 164.078 -25.204 164.478 C -24.764 164.871 -24.211 165.068 -23.544 165.068 C -23.157 165.068 -22.817 165.018 -22.524 164.918 C -22.231 164.818 -21.981 164.711 -21.774 164.598 C -21.574 164.758 -21.414 164.925 -21.294 165.098 C -21.181 165.271 -21.124 165.485 -21.124 165.738 C -21.124 166.191 -21.364 166.558 -21.844 166.838 C -22.324 167.111 -22.991 167.248 -23.844 167.248 C -24.564 167.248 -25.221 167.151 -25.814 166.958 C -26.407 166.765 -26.914 166.478 -27.334 166.098 C -27.754 165.711 -28.081 165.235 -28.314 164.668 C -28.541 164.095 -28.654 163.431 -28.654 162.678 C -28.654 161.898 -28.527 161.218 -28.274 160.638 C -28.021 160.065 -27.677 159.585 -27.244 159.198 C -26.817 158.818 -26.314 158.531 -25.734 158.338 C -25.161 158.145 -24.554 158.048 -23.914 158.048 C -23.087 158.048 -22.437 158.198 -21.964 158.498 C -21.491 158.798 -21.254 159.178 -21.254 159.638 C -21.254 159.851 -21.304 160.048 -21.404 160.228 C -21.511 160.408 -21.634 160.565 -21.774 160.698 C -21.994 160.578 -22.251 160.468 -22.544 160.368 C -22.837 160.275 -23.164 160.228 -23.524 160.228 ZM -15.01 160.228 C -15.657 160.228 -16.207 160.435 -16.66 160.848 C -17.12 161.261 -17.35 161.871 -17.35 162.678 C -17.35 163.478 -17.13 164.078 -16.69 164.478 C -16.25 164.871 -15.697 165.068 -15.03 165.068 C -14.643 165.068 -14.303 165.018 -14.01 164.918 C -13.717 164.818 -13.467 164.711 -13.26 164.598 C -13.06 164.758 -12.9 164.925 -12.78 165.098 C -12.667 165.271 -12.61 165.485 -12.61 165.738 C -12.61 166.191 -12.85 166.558 -13.33 166.838 C -13.81 167.111 -14.477 167.248 -15.33 167.248 C -16.05 167.248 -16.707 167.151 -17.3 166.958 C -17.893 166.765 -18.4 166.478 -18.82 166.098 C -19.24 165.711 -19.567 165.235 -19.8 164.668 C -20.027 164.095 -20.14 163.431 -20.14 162.678 C -20.14 161.898 -20.013 161.218 -19.76 160.638 C -19.507 160.065 -19.163 159.585 -18.73 159.198 C -18.303 158.818 -17.8 158.531 -17.22 158.338 C -16.647 158.145 -16.04 158.048 -15.4 158.048 C -14.573 158.048 -13.923 158.198 -13.45 158.498 C -12.977 158.798 -12.74 159.178 -12.74 159.638 C -12.74 159.851 -12.79 160.048 -12.89 160.228 C -12.997 160.408 -13.12 160.565 -13.26 160.698 C -13.48 160.578 -13.737 160.468 -14.03 160.368 C -14.323 160.275 -14.65 160.228 -15.01 160.228 ZM -4.206 163.088 L -8.886 163.788 C -8.719 164.295 -8.426 164.651 -8.006 164.858 C -7.586 165.071 -7.099 165.178 -6.546 165.178 C -6.046 165.178 -5.573 165.108 -5.126 164.968 C -4.679 164.835 -4.319 164.681 -4.046 164.508 C -3.866 164.628 -3.716 164.785 -3.596 164.978 C -3.476 165.171 -3.416 165.381 -3.416 165.608 C -3.416 165.888 -3.499 166.128 -3.666 166.328 C -3.833 166.535 -4.063 166.705 -4.356 166.838 C -4.656 166.978 -5.006 167.081 -5.406 167.148 C -5.806 167.215 -6.246 167.248 -6.726 167.248 C -7.433 167.248 -8.086 167.148 -8.686 166.948 C -9.286 166.755 -9.803 166.461 -10.236 166.068 C -10.669 165.681 -11.009 165.191 -11.256 164.598 C -11.503 164.011 -11.626 163.321 -11.626 162.528 C -11.626 161.761 -11.503 161.098 -11.256 160.538 C -11.009 159.971 -10.679 159.501 -10.266 159.128 C -9.853 158.755 -9.379 158.481 -8.846 158.308 C -8.313 158.135 -7.763 158.048 -7.196 158.048 C -6.583 158.048 -6.023 158.141 -5.516 158.328 C -5.003 158.515 -4.563 158.775 -4.196 159.108 C -3.829 159.448 -3.546 159.851 -3.346 160.318 C -3.139 160.785 -3.036 161.295 -3.036 161.848 C -3.036 162.235 -3.139 162.521 -3.346 162.708 C -3.546 162.901 -3.833 163.028 -4.206 163.088 Z M -7.176 160.088 C -7.696 160.088 -8.126 160.245 -8.466 160.558 C -8.806 160.878 -9.006 161.338 -9.066 161.938 L -5.626 161.378 C -5.653 161.065 -5.793 160.771 -6.046 160.498 C -6.299 160.225 -6.676 160.088 -7.176 160.088 ZM 5.656 164.438 C 5.656 165.325 5.326 166.018 4.666 166.518 C 4.006 167.018 3.033 167.268 1.746 167.268 C 1.246 167.268 0.789 167.231 0.376 167.158 C -0.037 167.085 -0.394 166.978 -0.694 166.838 C -0.994 166.691 -1.231 166.511 -1.404 166.298 C -1.571 166.078 -1.654 165.825 -1.654 165.538 C -1.654 165.271 -1.601 165.045 -1.494 164.858 C -1.381 164.678 -1.241 164.528 -1.074 164.408 C -0.727 164.608 -0.331 164.788 0.116 164.948 C 0.556 165.101 1.069 165.178 1.656 165.178 C 2.509 165.178 2.936 164.938 2.936 164.458 C 2.936 164.251 2.863 164.095 2.716 163.988 C 2.563 163.881 2.306 163.785 1.946 163.698 L 1.226 163.538 C 0.246 163.338 -0.484 163.025 -0.964 162.598 C -1.444 162.171 -1.684 161.575 -1.684 160.808 C -1.684 159.955 -1.341 159.278 -0.654 158.778 C 0.039 158.278 0.966 158.028 2.126 158.028 C 2.559 158.028 2.969 158.061 3.356 158.128 C 3.736 158.195 4.066 158.295 4.346 158.428 C 4.619 158.561 4.836 158.725 4.996 158.918 C 5.163 159.118 5.246 159.351 5.246 159.618 C 5.246 159.858 5.196 160.071 5.096 160.258 C 5.003 160.445 4.876 160.598 4.716 160.718 C 4.623 160.658 4.483 160.591 4.296 160.518 C 4.109 160.445 3.909 160.378 3.696 160.318 C 3.476 160.258 3.246 160.211 3.006 160.178 C 2.766 160.138 2.546 160.118 2.346 160.118 C 1.926 160.118 1.599 160.175 1.366 160.288 C 1.133 160.401 1.016 160.575 1.016 160.808 C 1.016 160.975 1.079 161.105 1.206 161.198 C 1.339 161.298 1.579 161.388 1.926 161.468 L 2.616 161.628 C 3.709 161.868 4.489 162.218 4.956 162.678 C 5.423 163.131 5.656 163.718 5.656 164.438 ZM 14.35 164.438 C 14.35 165.325 14.02 166.018 13.36 166.518 C 12.7 167.018 11.727 167.268 10.44 167.268 C 9.94 167.268 9.483 167.231 9.07 167.158 C 8.657 167.085 8.3 166.978 8 166.838 C 7.7 166.691 7.463 166.511 7.29 166.298 C 7.123 166.078 7.04 165.825 7.04 165.538 C 7.04 165.271 7.093 165.045 7.2 164.858 C 7.313 164.678 7.453 164.528 7.62 164.408 C 7.967 164.608 8.363 164.788 8.81 164.948 C 9.25 165.101 9.763 165.178 10.35 165.178 C 11.203 165.178 11.63 164.938 11.63 164.458 C 11.63 164.251 11.557 164.095 11.41 163.988 C 11.257 163.881 11 163.785 10.64 163.698 L 9.92 163.538 C 8.94 163.338 8.21 163.025 7.73 162.598 C 7.25 162.171 7.01 161.575 7.01 160.808 C 7.01 159.955 7.353 159.278 8.04 158.778 C 8.733 158.278 9.66 158.028 10.82 158.028 C 11.253 158.028 11.663 158.061 12.05 158.128 C 12.43 158.195 12.76 158.295 13.04 158.428 C 13.313 158.561 13.53 158.725 13.69 158.918 C 13.857 159.118 13.94 159.351 13.94 159.618 C 13.94 159.858 13.89 160.071 13.79 160.258 C 13.697 160.445 13.57 160.598 13.41 160.718 C 13.317 160.658 13.177 160.591 12.99 160.518 C 12.803 160.445 12.603 160.378 12.39 160.318 C 12.17 160.258 11.94 160.211 11.7 160.178 C 11.46 160.138 11.24 160.118 11.04 160.118 C 10.62 160.118 10.293 160.175 10.06 160.288 C 9.827 160.401 9.71 160.575 9.71 160.808 C 9.71 160.975 9.773 161.105 9.9 161.198 C 10.033 161.298 10.273 161.388 10.62 161.468 L 11.31 161.628 C 12.403 161.868 13.183 162.218 13.65 162.678 C 14.117 163.131 14.35 163.718 14.35 164.438 ZM 18.774 159.558 L 18.774 166.958 C 18.654 166.998 18.487 167.031 18.274 167.058 C 18.061 167.091 17.821 167.108 17.554 167.108 C 17.014 167.108 16.627 167.018 16.394 166.838 C 16.161 166.665 16.044 166.328 16.044 165.828 L 16.044 158.428 C 16.164 158.395 16.331 158.358 16.544 158.318 C 16.764 158.285 17.004 158.268 17.264 158.268 C 17.804 158.268 18.191 158.358 18.424 158.538 C 18.657 158.718 18.774 159.058 18.774 159.558 Z M 15.884 155.838 C 15.884 155.431 16.024 155.081 16.304 154.788 C 16.584 154.501 16.954 154.358 17.414 154.358 C 17.867 154.358 18.234 154.501 18.514 154.788 C 18.801 155.081 18.944 155.431 18.944 155.838 C 18.944 156.258 18.801 156.611 18.514 156.898 C 18.234 157.185 17.867 157.328 17.414 157.328 C 16.954 157.328 16.584 157.185 16.304 156.898 C 16.024 156.611 15.884 156.258 15.884 155.838 ZM 25.526 158.048 C 26.113 158.048 26.666 158.145 27.186 158.338 C 27.699 158.531 28.146 158.818 28.526 159.198 C 28.906 159.585 29.203 160.061 29.416 160.628 C 29.629 161.201 29.736 161.865 29.736 162.618 C 29.736 163.378 29.623 164.045 29.396 164.618 C 29.169 165.198 28.849 165.681 28.436 166.068 C 28.023 166.461 27.526 166.755 26.946 166.948 C 26.359 167.148 25.706 167.248 24.986 167.248 C 24.233 167.248 23.586 167.158 23.046 166.978 C 22.506 166.798 22.056 166.581 21.696 166.328 C 21.176 165.981 20.916 165.525 20.916 164.958 L 20.916 155.258 C 21.049 155.225 21.226 155.188 21.446 155.148 C 21.659 155.115 21.899 155.098 22.166 155.098 C 22.706 155.098 23.093 155.188 23.326 155.368 C 23.559 155.548 23.676 155.891 23.676 156.398 L 23.676 158.448 C 23.916 158.341 24.193 158.248 24.506 158.168 C 24.813 158.088 25.153 158.048 25.526 158.048 Z M 25.026 160.208 C 24.746 160.208 24.496 160.248 24.276 160.328 C 24.056 160.408 23.849 160.508 23.656 160.628 L 23.656 164.748 C 23.803 164.841 23.983 164.918 24.196 164.978 C 24.409 165.038 24.663 165.068 24.956 165.068 C 25.556 165.068 26.033 164.865 26.386 164.458 C 26.739 164.051 26.916 163.438 26.916 162.618 C 26.916 161.778 26.746 161.168 26.406 160.788 C 26.059 160.401 25.599 160.208 25.026 160.208 ZM 34.182 159.558 L 34.182 166.958 C 34.062 166.998 33.895 167.031 33.682 167.058 C 33.469 167.091 33.229 167.108 32.962 167.108 C 32.422 167.108 32.035 167.018 31.802 166.838 C 31.569 166.665 31.452 166.328 31.452 165.828 L 31.452 158.428 C 31.572 158.395 31.739 158.358 31.952 158.318 C 32.172 158.285 32.412 158.268 32.672 158.268 C 33.212 158.268 33.599 158.358 33.832 158.538 C 34.065 158.718 34.182 159.058 34.182 159.558 Z M 31.292 155.838 C 31.292 155.431 31.432 155.081 31.712 154.788 C 31.992 154.501 32.362 154.358 32.822 154.358 C 33.275 154.358 33.642 154.501 33.922 154.788 C 34.209 155.081 34.352 155.431 34.352 155.838 C 34.352 156.258 34.209 156.611 33.922 156.898 C 33.642 157.185 33.275 157.328 32.822 157.328 C 32.362 157.328 31.992 157.185 31.712 156.898 C 31.432 156.611 31.292 156.258 31.292 155.838 ZM 37.914 167.108 C 37.374 167.108 36.987 167.018 36.754 166.838 C 36.521 166.665 36.404 166.328 36.404 165.828 L 36.404 155.258 C 36.524 155.225 36.694 155.188 36.914 155.148 C 37.134 155.115 37.377 155.098 37.644 155.098 C 38.171 155.098 38.554 155.188 38.794 155.368 C 39.034 155.548 39.154 155.891 39.154 156.398 L 39.154 166.958 C 39.021 166.998 38.847 167.031 38.634 167.058 C 38.414 167.091 38.174 167.108 37.914 167.108 ZM 44.1 159.558 L 44.1 166.958 C 43.98 166.998 43.813 167.031 43.6 167.058 C 43.387 167.091 43.147 167.108 42.88 167.108 C 42.34 167.108 41.953 167.018 41.72 166.838 C 41.487 166.665 41.37 166.328 41.37 165.828 L 41.37 158.428 C 41.49 158.395 41.657 158.358 41.87 158.318 C 42.09 158.285 42.33 158.268 42.59 158.268 C 43.13 158.268 43.517 158.358 43.75 158.538 C 43.983 158.718 44.1 159.058 44.1 159.558 Z M 41.21 155.838 C 41.21 155.431 41.35 155.081 41.63 154.788 C 41.91 154.501 42.28 154.358 42.74 154.358 C 43.193 154.358 43.56 154.501 43.84 154.788 C 44.127 155.081 44.27 155.431 44.27 155.838 C 44.27 156.258 44.127 156.611 43.84 156.898 C 43.56 157.185 43.193 157.328 42.74 157.328 C 42.28 157.328 41.91 157.185 41.63 156.898 C 41.35 156.611 41.21 156.258 41.21 155.838 ZM 48.962 164.118 C 48.962 164.451 49.072 164.695 49.292 164.848 C 49.505 164.995 49.805 165.068 50.192 165.068 C 50.372 165.068 50.562 165.048 50.762 165.008 C 50.969 164.968 51.142 164.918 51.282 164.858 C 51.395 164.978 51.485 165.115 51.552 165.268 C 51.625 165.421 51.662 165.601 51.662 165.808 C 51.662 166.228 51.499 166.571 51.172 166.838 C 50.839 167.111 50.265 167.248 49.452 167.248 C 48.445 167.248 47.659 167.018 47.092 166.558 C 46.525 166.091 46.242 165.338 46.242 164.298 L 46.242 156.218 C 46.375 156.178 46.552 156.138 46.772 156.098 C 46.985 156.058 47.219 156.038 47.472 156.038 C 47.999 156.038 48.379 156.128 48.612 156.308 C 48.845 156.495 48.962 156.835 48.962 157.328 L 48.962 158.498 L 51.452 158.498 C 51.512 158.618 51.572 158.771 51.632 158.958 C 51.692 159.145 51.722 159.341 51.722 159.548 C 51.722 159.928 51.635 160.201 51.462 160.368 C 51.282 160.541 51.055 160.628 50.782 160.628 L 48.962 160.628 L 48.962 164.118 ZM 54.726 164.818 C 54.446 164.218 54.129 163.435 53.776 162.468 C 53.423 161.501 53.056 160.251 52.676 158.718 C 52.816 158.558 53.016 158.421 53.276 158.308 C 53.536 158.195 53.816 158.138 54.116 158.138 C 54.496 158.138 54.806 158.218 55.046 158.378 C 55.286 158.545 55.473 158.845 55.606 159.278 C 55.873 160.151 56.139 161.015 56.406 161.868 C 56.679 162.721 56.953 163.578 57.226 164.438 L 57.296 164.438 C 57.443 164.031 57.593 163.585 57.746 163.098 C 57.906 162.611 58.056 162.108 58.196 161.588 C 58.343 161.068 58.479 160.538 58.606 159.998 C 58.733 159.465 58.843 158.948 58.936 158.448 C 59.309 158.241 59.699 158.138 60.106 158.138 C 60.493 158.138 60.823 158.221 61.096 158.388 C 61.369 158.561 61.506 158.838 61.506 159.218 C 61.506 159.651 61.433 160.201 61.286 160.868 C 61.133 161.535 60.936 162.231 60.696 162.958 C 60.449 163.685 60.173 164.405 59.866 165.118 C 59.559 165.831 59.243 166.458 58.916 166.998 C 58.243 168.138 57.636 168.988 57.096 169.548 C 56.556 170.101 56.013 170.378 55.466 170.378 C 55.019 170.378 54.653 170.245 54.366 169.978 C 54.079 169.705 53.906 169.358 53.846 168.938 C 54.226 168.605 54.623 168.211 55.036 167.758 C 55.449 167.311 55.803 166.858 56.096 166.398 C 55.889 166.338 55.676 166.205 55.456 165.998 C 55.229 165.785 54.986 165.391 54.726 164.818 ZM 69.248 158.268 L 69.248 158.948 L 72.308 158.948 C 72.368 159.068 72.431 159.218 72.498 159.398 C 72.565 159.578 72.598 159.778 72.598 159.998 C 72.598 160.378 72.511 160.651 72.338 160.818 C 72.165 160.991 71.938 161.078 71.658 161.078 L 69.378 161.078 L 69.378 166.958 C 69.258 166.998 69.088 167.031 68.868 167.058 C 68.655 167.091 68.415 167.108 68.148 167.108 C 67.608 167.108 67.218 167.018 66.978 166.838 C 66.738 166.665 66.618 166.328 66.618 165.828 L 66.618 158.178 C 66.618 157.591 66.718 157.081 66.918 156.648 C 67.118 156.215 67.391 155.861 67.738 155.588 C 68.085 155.321 68.491 155.121 68.958 154.988 C 69.431 154.855 69.938 154.788 70.478 154.788 C 71.325 154.788 71.958 154.901 72.378 155.128 C 72.791 155.348 72.998 155.711 72.998 156.218 C 72.998 156.445 72.951 156.645 72.858 156.818 C 72.771 156.991 72.668 157.125 72.548 157.218 C 72.315 157.151 72.071 157.091 71.818 157.038 C 71.558 156.991 71.265 156.968 70.938 156.968 C 70.391 156.968 69.971 157.068 69.678 157.268 C 69.391 157.468 69.248 157.801 69.248 158.268 ZM 80.808 163.088 L 76.128 163.788 C 76.295 164.295 76.588 164.651 77.008 164.858 C 77.428 165.071 77.915 165.178 78.468 165.178 C 78.968 165.178 79.441 165.108 79.888 164.968 C 80.335 164.835 80.695 164.681 80.968 164.508 C 81.148 164.628 81.298 164.785 81.418 164.978 C 81.538 165.171 81.598 165.381 81.598 165.608 C 81.598 165.888 81.515 166.128 81.348 166.328 C 81.181 166.535 80.951 166.705 80.658 166.838 C 80.358 166.978 80.008 167.081 79.608 167.148 C 79.208 167.215 78.768 167.248 78.288 167.248 C 77.581 167.248 76.928 167.148 76.328 166.948 C 75.728 166.755 75.211 166.461 74.778 166.068 C 74.345 165.681 74.005 165.191 73.758 164.598 C 73.511 164.011 73.388 163.321 73.388 162.528 C 73.388 161.761 73.511 161.098 73.758 160.538 C 74.005 159.971 74.335 159.501 74.748 159.128 C 75.161 158.755 75.635 158.481 76.168 158.308 C 76.701 158.135 77.251 158.048 77.818 158.048 C 78.431 158.048 78.991 158.141 79.498 158.328 C 80.011 158.515 80.451 158.775 80.818 159.108 C 81.185 159.448 81.468 159.851 81.668 160.318 C 81.875 160.785 81.978 161.295 81.978 161.848 C 81.978 162.235 81.875 162.521 81.668 162.708 C 81.468 162.901 81.181 163.028 80.808 163.088 Z M 77.838 160.088 C 77.318 160.088 76.888 160.245 76.548 160.558 C 76.208 160.878 76.008 161.338 75.948 161.938 L 79.388 161.378 C 79.361 161.065 79.221 160.771 78.968 160.498 C 78.715 160.225 78.338 160.088 77.838 160.088 ZM 87.162 165.228 C 87.422 165.228 87.682 165.201 87.942 165.148 C 88.202 165.095 88.399 165.028 88.532 164.948 L 88.532 163.288 L 87.052 163.418 C 86.665 163.451 86.355 163.538 86.122 163.678 C 85.889 163.811 85.772 164.018 85.772 164.298 C 85.772 164.585 85.882 164.811 86.102 164.978 C 86.315 165.145 86.669 165.228 87.162 165.228 Z M 87.052 158.048 C 87.679 158.048 88.245 158.111 88.752 158.238 C 89.265 158.365 89.702 158.561 90.062 158.828 C 90.422 159.088 90.699 159.421 90.892 159.828 C 91.092 160.241 91.192 160.721 91.192 161.268 L 91.192 165.338 C 91.192 165.651 91.112 165.901 90.952 166.088 C 90.785 166.275 90.589 166.435 90.362 166.568 C 89.989 166.795 89.532 166.968 88.992 167.088 C 88.452 167.208 87.842 167.268 87.162 167.268 C 85.922 167.268 84.939 167.031 84.212 166.558 C 83.479 166.085 83.112 165.361 83.112 164.388 C 83.112 163.561 83.359 162.931 83.852 162.498 C 84.339 162.065 85.092 161.795 86.112 161.688 L 88.512 161.438 L 88.512 161.238 C 88.512 160.851 88.355 160.568 88.042 160.388 C 87.729 160.208 87.279 160.118 86.692 160.118 C 86.239 160.118 85.792 160.171 85.352 160.278 C 84.912 160.391 84.519 160.518 84.172 160.658 C 84.025 160.565 83.902 160.418 83.802 160.218 C 83.702 160.018 83.652 159.805 83.652 159.578 C 83.652 159.051 83.929 158.675 84.482 158.448 C 84.829 158.315 85.232 158.215 85.692 158.148 C 86.152 158.081 86.605 158.048 87.052 158.048 ZM 95.942 164.118 C 95.942 164.451 96.052 164.695 96.272 164.848 C 96.485 164.995 96.785 165.068 97.172 165.068 C 97.352 165.068 97.542 165.048 97.742 165.008 C 97.949 164.968 98.122 164.918 98.262 164.858 C 98.375 164.978 98.465 165.115 98.532 165.268 C 98.605 165.421 98.642 165.601 98.642 165.808 C 98.642 166.228 98.479 166.571 98.152 166.838 C 97.819 167.111 97.245 167.248 96.432 167.248 C 95.425 167.248 94.639 167.018 94.072 166.558 C 93.505 166.091 93.222 165.338 93.222 164.298 L 93.222 156.218 C 93.355 156.178 93.532 156.138 93.752 156.098 C 93.965 156.058 94.199 156.038 94.452 156.038 C 94.979 156.038 95.359 156.128 95.592 156.308 C 95.825 156.495 95.942 156.835 95.942 157.328 L 95.942 158.498 L 98.432 158.498 C 98.492 158.618 98.552 158.771 98.612 158.958 C 98.672 159.145 98.702 159.341 98.702 159.548 C 98.702 159.928 98.615 160.201 98.442 160.368 C 98.262 160.541 98.035 160.628 97.762 160.628 L 95.942 160.628 L 95.942 164.118 ZM 108.58 165.178 C 108.58 165.745 108.333 166.178 107.84 166.478 C 107.46 166.718 106.987 166.905 106.42 167.038 C 105.853 167.178 105.23 167.248 104.55 167.248 C 103.903 167.248 103.313 167.178 102.78 167.038 C 102.253 166.905 101.803 166.688 101.43 166.388 C 101.05 166.088 100.753 165.708 100.54 165.248 C 100.333 164.795 100.23 164.245 100.23 163.598 L 100.23 158.358 C 100.363 158.318 100.537 158.281 100.75 158.248 C 100.963 158.215 101.203 158.198 101.47 158.198 C 102.01 158.198 102.397 158.288 102.63 158.468 C 102.863 158.648 102.98 158.988 102.98 159.488 L 102.98 163.578 C 102.98 164.118 103.12 164.505 103.4 164.738 C 103.673 164.971 104.063 165.088 104.57 165.088 C 104.877 165.088 105.137 165.061 105.35 165.008 C 105.557 164.955 105.717 164.898 105.83 164.838 L 105.83 158.358 C 105.95 158.318 106.117 158.281 106.33 158.248 C 106.543 158.215 106.783 158.198 107.05 158.198 C 107.59 158.198 107.98 158.288 108.22 158.468 C 108.46 158.648 108.58 158.988 108.58 159.488 L 108.58 165.178 ZM 113.348 160.698 L 113.348 166.958 C 113.228 166.998 113.061 167.031 112.848 167.058 C 112.628 167.091 112.388 167.108 112.128 167.108 C 111.588 167.108 111.198 167.018 110.958 166.838 C 110.718 166.665 110.598 166.328 110.598 165.828 L 110.598 160.338 C 110.598 159.998 110.681 159.708 110.848 159.468 C 111.015 159.228 111.248 159.018 111.548 158.838 C 111.948 158.598 112.425 158.411 112.978 158.278 C 113.538 158.138 114.125 158.068 114.738 158.068 C 115.985 158.068 116.608 158.488 116.608 159.328 C 116.608 159.535 116.578 159.721 116.518 159.888 C 116.458 160.055 116.391 160.198 116.318 160.318 C 116.045 160.258 115.708 160.228 115.308 160.228 C 114.961 160.228 114.615 160.271 114.268 160.358 C 113.921 160.438 113.615 160.551 113.348 160.698 ZM 124.602 163.088 L 119.922 163.788 C 120.089 164.295 120.382 164.651 120.802 164.858 C 121.222 165.071 121.709 165.178 122.262 165.178 C 122.762 165.178 123.235 165.108 123.682 164.968 C 124.129 164.835 124.489 164.681 124.762 164.508 C 124.942 164.628 125.092 164.785 125.212 164.978 C 125.332 165.171 125.392 165.381 125.392 165.608 C 125.392 165.888 125.309 166.128 125.142 166.328 C 124.975 166.535 124.745 166.705 124.452 166.838 C 124.152 166.978 123.802 167.081 123.402 167.148 C 123.002 167.215 122.562 167.248 122.082 167.248 C 121.375 167.248 120.722 167.148 120.122 166.948 C 119.522 166.755 119.005 166.461 118.572 166.068 C 118.139 165.681 117.799 165.191 117.552 164.598 C 117.305 164.011 117.182 163.321 117.182 162.528 C 117.182 161.761 117.305 161.098 117.552 160.538 C 117.799 159.971 118.129 159.501 118.542 159.128 C 118.955 158.755 119.429 158.481 119.962 158.308 C 120.495 158.135 121.045 158.048 121.612 158.048 C 122.225 158.048 122.785 158.141 123.292 158.328 C 123.805 158.515 124.245 158.775 124.612 159.108 C 124.979 159.448 125.262 159.851 125.462 160.318 C 125.669 160.785 125.772 161.295 125.772 161.848 C 125.772 162.235 125.669 162.521 125.462 162.708 C 125.262 162.901 124.975 163.028 124.602 163.088 Z M 121.632 160.088 C 121.112 160.088 120.682 160.245 120.342 160.558 C 120.002 160.878 119.802 161.338 119.742 161.938 L 123.182 161.378 C 123.155 161.065 123.015 160.771 122.762 160.498 C 122.509 160.225 122.132 160.088 121.632 160.088 ZM 134.464 164.438 C 134.464 165.325 134.134 166.018 133.474 166.518 C 132.814 167.018 131.841 167.268 130.554 167.268 C 130.054 167.268 129.597 167.231 129.184 167.158 C 128.771 167.085 128.414 166.978 128.114 166.838 C 127.814 166.691 127.577 166.511 127.404 166.298 C 127.237 166.078 127.154 165.825 127.154 165.538 C 127.154 165.271 127.207 165.045 127.314 164.858 C 127.427 164.678 127.567 164.528 127.734 164.408 C 128.081 164.608 128.477 164.788 128.924 164.948 C 129.364 165.101 129.877 165.178 130.464 165.178 C 131.317 165.178 131.744 164.938 131.744 164.458 C 131.744 164.251 131.671 164.095 131.524 163.988 C 131.371 163.881 131.114 163.785 130.754 163.698 L 130.034 163.538 C 129.054 163.338 128.324 163.025 127.844 162.598 C 127.364 162.171 127.124 161.575 127.124 160.808 C 127.124 159.955 127.467 159.278 128.154 158.778 C 128.847 158.278 129.774 158.028 130.934 158.028 C 131.367 158.028 131.777 158.061 132.164 158.128 C 132.544 158.195 132.874 158.295 133.154 158.428 C 133.427 158.561 133.644 158.725 133.804 158.918 C 133.971 159.118 134.054 159.351 134.054 159.618 C 134.054 159.858 134.004 160.071 133.904 160.258 C 133.811 160.445 133.684 160.598 133.524 160.718 C 133.431 160.658 133.291 160.591 133.104 160.518 C 132.917 160.445 132.717 160.378 132.504 160.318 C 132.284 160.258 132.054 160.211 131.814 160.178 C 131.574 160.138 131.354 160.118 131.154 160.118 C 130.734 160.118 130.407 160.175 130.174 160.288 C 129.941 160.401 129.824 160.575 129.824 160.808 C 129.824 160.975 129.887 161.105 130.014 161.198 C 130.147 161.298 130.387 161.388 130.734 161.468 L 131.424 161.628 C 132.517 161.868 133.297 162.218 133.764 162.678 C 134.231 163.131 134.464 163.718 134.464 164.438 Z" transform="matrix(1, 0, 0, 1, 72.58984375, 15.975260734558105)" style="fill: rgb(255, 255, 255); white-space: pre;"/>
  <path d="M -17.962 178.228 C -18.609 178.228 -19.159 178.435 -19.612 178.848 C -20.072 179.261 -20.302 179.871 -20.302 180.678 C -20.302 181.478 -20.082 182.078 -19.642 182.478 C -19.202 182.871 -18.649 183.068 -17.982 183.068 C -17.595 183.068 -17.255 183.018 -16.962 182.918 C -16.669 182.818 -16.419 182.711 -16.212 182.598 C -16.012 182.758 -15.852 182.925 -15.732 183.098 C -15.619 183.271 -15.562 183.485 -15.562 183.738 C -15.562 184.191 -15.802 184.558 -16.282 184.838 C -16.762 185.111 -17.429 185.248 -18.282 185.248 C -19.002 185.248 -19.659 185.151 -20.252 184.958 C -20.845 184.765 -21.352 184.478 -21.772 184.098 C -22.192 183.711 -22.519 183.235 -22.752 182.668 C -22.979 182.095 -23.092 181.431 -23.092 180.678 C -23.092 179.898 -22.965 179.218 -22.712 178.638 C -22.459 178.065 -22.115 177.585 -21.682 177.198 C -21.255 176.818 -20.752 176.531 -20.172 176.338 C -19.599 176.145 -18.992 176.048 -18.352 176.048 C -17.525 176.048 -16.875 176.198 -16.402 176.498 C -15.929 176.798 -15.692 177.178 -15.692 177.638 C -15.692 177.851 -15.742 178.048 -15.842 178.228 C -15.949 178.408 -16.072 178.565 -16.212 178.698 C -16.432 178.578 -16.689 178.468 -16.982 178.368 C -17.275 178.275 -17.602 178.228 -17.962 178.228 ZM -5.378 180.638 C -5.378 181.345 -5.485 181.985 -5.698 182.558 C -5.918 183.125 -6.228 183.608 -6.628 184.008 C -7.028 184.401 -7.511 184.708 -8.078 184.928 C -8.645 185.141 -9.275 185.248 -9.968 185.248 C -10.661 185.248 -11.295 185.141 -11.868 184.928 C -12.435 184.721 -12.921 184.421 -13.328 184.028 C -13.728 183.628 -14.035 183.145 -14.248 182.578 C -14.468 182.005 -14.578 181.358 -14.578 180.638 C -14.578 179.945 -14.465 179.311 -14.238 178.738 C -14.018 178.171 -13.708 177.688 -13.308 177.288 C -12.908 176.895 -12.421 176.591 -11.848 176.378 C -11.281 176.158 -10.655 176.048 -9.968 176.048 C -9.281 176.048 -8.658 176.158 -8.098 176.378 C -7.531 176.591 -7.048 176.898 -6.648 177.298 C -6.248 177.705 -5.935 178.188 -5.708 178.748 C -5.488 179.315 -5.378 179.945 -5.378 180.638 Z M -9.968 178.208 C -10.535 178.208 -10.971 178.418 -11.278 178.838 C -11.591 179.258 -11.748 179.858 -11.748 180.638 C -11.748 181.445 -11.595 182.055 -11.288 182.468 C -10.981 182.881 -10.541 183.088 -9.968 183.088 C -9.395 183.088 -8.955 182.878 -8.648 182.458 C -8.341 182.038 -8.188 181.431 -8.188 180.638 C -8.188 179.871 -8.345 179.275 -8.658 178.848 C -8.965 178.421 -9.401 178.208 -9.968 178.208 ZM 9.362 179.288 L 9.362 184.958 C 9.229 184.998 9.055 185.031 8.842 185.058 C 8.629 185.091 8.389 185.108 8.122 185.108 C 7.582 185.108 7.195 185.018 6.962 184.838 C 6.729 184.665 6.612 184.328 6.612 183.828 L 6.612 179.358 C 6.612 178.965 6.502 178.675 6.282 178.488 C 6.069 178.301 5.775 178.208 5.402 178.208 C 5.162 178.208 4.939 178.251 4.732 178.338 C 4.519 178.418 4.329 178.525 4.162 178.658 C 4.175 178.718 4.185 178.778 4.192 178.838 C 4.199 178.898 4.202 178.958 4.202 179.018 L 4.202 184.958 C 4.069 184.998 3.892 185.031 3.672 185.058 C 3.459 185.091 3.219 185.108 2.952 185.108 C 2.412 185.108 2.025 185.018 1.792 184.838 C 1.559 184.665 1.442 184.328 1.442 183.828 L 1.442 179.358 C 1.442 178.965 1.322 178.675 1.082 178.488 C 0.842 178.301 0.549 178.208 0.202 178.208 C -0.051 178.208 -0.278 178.248 -0.478 178.328 C -0.685 178.408 -0.855 178.481 -0.988 178.548 L -0.988 184.958 C -1.108 184.998 -1.275 185.031 -1.488 185.058 C -1.708 185.091 -1.948 185.108 -2.208 185.108 C -2.748 185.108 -3.138 185.018 -3.378 184.838 C -3.618 184.665 -3.738 184.328 -3.738 183.828 L -3.738 178.268 C -3.738 177.955 -3.671 177.701 -3.538 177.508 C -3.411 177.315 -3.228 177.135 -2.988 176.968 C -2.588 176.695 -2.098 176.471 -1.518 176.298 C -0.938 176.131 -0.328 176.048 0.312 176.048 C 0.812 176.048 1.289 176.118 1.742 176.258 C 2.189 176.398 2.599 176.611 2.972 176.898 C 3.332 176.658 3.742 176.455 4.202 176.288 C 4.655 176.128 5.195 176.048 5.822 176.048 C 6.289 176.048 6.735 176.105 7.162 176.218 C 7.589 176.331 7.962 176.518 8.282 176.778 C 8.609 177.038 8.872 177.375 9.072 177.788 C 9.265 178.201 9.362 178.701 9.362 179.288 ZM 24.5 179.288 L 24.5 184.958 C 24.367 184.998 24.193 185.031 23.98 185.058 C 23.767 185.091 23.527 185.108 23.26 185.108 C 22.72 185.108 22.333 185.018 22.1 184.838 C 21.867 184.665 21.75 184.328 21.75 183.828 L 21.75 179.358 C 21.75 178.965 21.64 178.675 21.42 178.488 C 21.207 178.301 20.913 178.208 20.54 178.208 C 20.3 178.208 20.077 178.251 19.87 178.338 C 19.657 178.418 19.467 178.525 19.3 178.658 C 19.313 178.718 19.323 178.778 19.33 178.838 C 19.337 178.898 19.34 178.958 19.34 179.018 L 19.34 184.958 C 19.207 184.998 19.03 185.031 18.81 185.058 C 18.597 185.091 18.357 185.108 18.09 185.108 C 17.55 185.108 17.163 185.018 16.93 184.838 C 16.697 184.665 16.58 184.328 16.58 183.828 L 16.58 179.358 C 16.58 178.965 16.46 178.675 16.22 178.488 C 15.98 178.301 15.687 178.208 15.34 178.208 C 15.087 178.208 14.86 178.248 14.66 178.328 C 14.453 178.408 14.283 178.481 14.15 178.548 L 14.15 184.958 C 14.03 184.998 13.863 185.031 13.65 185.058 C 13.43 185.091 13.19 185.108 12.93 185.108 C 12.39 185.108 12 185.018 11.76 184.838 C 11.52 184.665 11.4 184.328 11.4 183.828 L 11.4 178.268 C 11.4 177.955 11.467 177.701 11.6 177.508 C 11.727 177.315 11.91 177.135 12.15 176.968 C 12.55 176.695 13.04 176.471 13.62 176.298 C 14.2 176.131 14.81 176.048 15.45 176.048 C 15.95 176.048 16.427 176.118 16.88 176.258 C 17.327 176.398 17.737 176.611 18.11 176.898 C 18.47 176.658 18.88 176.455 19.34 176.288 C 19.793 176.128 20.333 176.048 20.96 176.048 C 21.427 176.048 21.873 176.105 22.3 176.218 C 22.727 176.331 23.1 176.518 23.42 176.778 C 23.747 177.038 24.01 177.375 24.21 177.788 C 24.403 178.201 24.5 178.701 24.5 179.288 ZM 34.888 183.178 C 34.888 183.745 34.641 184.178 34.148 184.478 C 33.768 184.718 33.295 184.905 32.728 185.038 C 32.161 185.178 31.538 185.248 30.858 185.248 C 30.211 185.248 29.621 185.178 29.088 185.038 C 28.561 184.905 28.111 184.688 27.738 184.388 C 27.358 184.088 27.061 183.708 26.848 183.248 C 26.641 182.795 26.538 182.245 26.538 181.598 L 26.538 176.358 C 26.671 176.318 26.845 176.281 27.058 176.248 C 27.271 176.215 27.511 176.198 27.778 176.198 C 28.318 176.198 28.705 176.288 28.938 176.468 C 29.171 176.648 29.288 176.988 29.288 177.488 L 29.288 181.578 C 29.288 182.118 29.428 182.505 29.708 182.738 C 29.981 182.971 30.371 183.088 30.878 183.088 C 31.185 183.088 31.445 183.061 31.658 183.008 C 31.865 182.955 32.025 182.898 32.138 182.838 L 32.138 176.358 C 32.258 176.318 32.425 176.281 32.638 176.248 C 32.851 176.215 33.091 176.198 33.358 176.198 C 33.898 176.198 34.288 176.288 34.528 176.468 C 34.768 176.648 34.888 176.988 34.888 177.488 L 34.888 183.178 ZM 42.506 179.448 C 42.506 179.028 42.379 178.718 42.126 178.518 C 41.873 178.311 41.536 178.208 41.116 178.208 C 40.829 178.208 40.566 178.245 40.326 178.318 C 40.086 178.391 39.863 178.481 39.656 178.588 L 39.656 184.958 C 39.536 184.998 39.369 185.031 39.156 185.058 C 38.936 185.091 38.696 185.108 38.436 185.108 C 37.896 185.108 37.506 185.018 37.266 184.838 C 37.026 184.665 36.906 184.328 36.906 183.828 L 36.906 178.268 C 36.906 177.955 36.973 177.701 37.106 177.508 C 37.233 177.315 37.416 177.135 37.656 176.968 C 38.043 176.695 38.539 176.471 39.146 176.298 C 39.753 176.131 40.423 176.048 41.156 176.048 C 42.463 176.048 43.473 176.338 44.186 176.918 C 44.899 177.491 45.256 178.311 45.256 179.378 L 45.256 184.958 C 45.123 184.998 44.949 185.031 44.736 185.058 C 44.516 185.091 44.276 185.108 44.016 185.108 C 43.476 185.108 43.089 185.018 42.856 184.838 C 42.623 184.665 42.506 184.328 42.506 183.828 L 42.506 179.448 ZM 50.112 177.558 L 50.112 184.958 C 49.992 184.998 49.825 185.031 49.612 185.058 C 49.399 185.091 49.159 185.108 48.892 185.108 C 48.352 185.108 47.965 185.018 47.732 184.838 C 47.499 184.665 47.382 184.328 47.382 183.828 L 47.382 176.428 C 47.502 176.395 47.669 176.358 47.882 176.318 C 48.102 176.285 48.342 176.268 48.602 176.268 C 49.142 176.268 49.529 176.358 49.762 176.538 C 49.995 176.718 50.112 177.058 50.112 177.558 Z M 47.222 173.838 C 47.222 173.431 47.362 173.081 47.642 172.788 C 47.922 172.501 48.292 172.358 48.752 172.358 C 49.205 172.358 49.572 172.501 49.852 172.788 C 50.139 173.081 50.282 173.431 50.282 173.838 C 50.282 174.258 50.139 174.611 49.852 174.898 C 49.572 175.185 49.205 175.328 48.752 175.328 C 48.292 175.328 47.922 175.185 47.642 174.898 C 47.362 174.611 47.222 174.258 47.222 173.838 ZM 54.974 182.118 C 54.974 182.451 55.084 182.695 55.304 182.848 C 55.517 182.995 55.817 183.068 56.204 183.068 C 56.384 183.068 56.574 183.048 56.774 183.008 C 56.981 182.968 57.154 182.918 57.294 182.858 C 57.407 182.978 57.497 183.115 57.564 183.268 C 57.637 183.421 57.674 183.601 57.674 183.808 C 57.674 184.228 57.511 184.571 57.184 184.838 C 56.851 185.111 56.277 185.248 55.464 185.248 C 54.457 185.248 53.671 185.018 53.104 184.558 C 52.537 184.091 52.254 183.338 52.254 182.298 L 52.254 174.218 C 52.387 174.178 52.564 174.138 52.784 174.098 C 52.997 174.058 53.231 174.038 53.484 174.038 C 54.011 174.038 54.391 174.128 54.624 174.308 C 54.857 174.495 54.974 174.835 54.974 175.328 L 54.974 176.498 L 57.464 176.498 C 57.524 176.618 57.584 176.771 57.644 176.958 C 57.704 177.145 57.734 177.341 57.734 177.548 C 57.734 177.928 57.647 178.201 57.474 178.368 C 57.294 178.541 57.067 178.628 56.794 178.628 L 54.974 178.628 L 54.974 182.118 ZM 60.738 182.818 C 60.458 182.218 60.141 181.435 59.788 180.468 C 59.435 179.501 59.068 178.251 58.688 176.718 C 58.828 176.558 59.028 176.421 59.288 176.308 C 59.548 176.195 59.828 176.138 60.128 176.138 C 60.508 176.138 60.818 176.218 61.058 176.378 C 61.298 176.545 61.485 176.845 61.618 177.278 C 61.885 178.151 62.151 179.015 62.418 179.868 C 62.691 180.721 62.965 181.578 63.238 182.438 L 63.308 182.438 C 63.455 182.031 63.605 181.585 63.758 181.098 C 63.918 180.611 64.068 180.108 64.208 179.588 C 64.355 179.068 64.491 178.538 64.618 177.998 C 64.745 177.465 64.855 176.948 64.948 176.448 C 65.321 176.241 65.711 176.138 66.118 176.138 C 66.505 176.138 66.835 176.221 67.108 176.388 C 67.381 176.561 67.518 176.838 67.518 177.218 C 67.518 177.651 67.445 178.201 67.298 178.868 C 67.145 179.535 66.948 180.231 66.708 180.958 C 66.461 181.685 66.185 182.405 65.878 183.118 C 65.571 183.831 65.255 184.458 64.928 184.998 C 64.255 186.138 63.648 186.988 63.108 187.548 C 62.568 188.101 62.025 188.378 61.478 188.378 C 61.031 188.378 60.665 188.245 60.378 187.978 C 60.091 187.705 59.918 187.358 59.858 186.938 C 60.238 186.605 60.635 186.211 61.048 185.758 C 61.461 185.311 61.815 184.858 62.108 184.398 C 61.901 184.338 61.688 184.205 61.468 183.998 C 61.241 183.785 60.998 183.391 60.738 182.818 ZM 78.03 184.868 L 78.03 184.278 C 77.79 184.385 77.52 184.471 77.22 184.538 C 76.92 184.605 76.58 184.638 76.2 184.638 C 75.66 184.638 75.147 184.561 74.66 184.408 C 74.173 184.261 73.75 184.018 73.39 183.678 C 73.03 183.345 72.743 182.908 72.53 182.368 C 72.31 181.828 72.2 181.168 72.2 180.388 C 72.2 179.681 72.31 179.058 72.53 178.518 C 72.743 177.978 73.05 177.525 73.45 177.158 C 73.857 176.791 74.337 176.515 74.89 176.328 C 75.45 176.141 76.073 176.048 76.76 176.048 C 77.427 176.048 78.04 176.135 78.6 176.308 C 79.16 176.481 79.597 176.671 79.91 176.878 C 80.137 177.031 80.317 177.208 80.45 177.408 C 80.577 177.608 80.64 177.858 80.64 178.158 L 80.64 184.938 C 80.64 185.565 80.527 186.105 80.3 186.558 C 80.073 187.018 79.76 187.395 79.36 187.688 C 78.953 187.981 78.48 188.201 77.94 188.348 C 77.4 188.488 76.82 188.558 76.2 188.558 C 75.553 188.558 74.993 188.505 74.52 188.398 C 74.04 188.291 73.663 188.155 73.39 187.988 C 72.983 187.695 72.78 187.308 72.78 186.828 C 72.78 186.581 72.833 186.351 72.94 186.138 C 73.047 185.931 73.167 185.778 73.3 185.678 C 73.633 185.871 74.02 186.038 74.46 186.178 C 74.9 186.311 75.367 186.378 75.86 186.378 C 76.527 186.378 77.057 186.261 77.45 186.028 C 77.837 185.795 78.03 185.408 78.03 184.868 Z M 76.68 182.568 C 76.973 182.568 77.223 182.531 77.43 182.458 C 77.643 182.385 77.833 182.288 78 182.168 L 78 178.478 C 77.853 178.418 77.693 178.358 77.52 178.298 C 77.347 178.238 77.127 178.208 76.86 178.208 C 76.287 178.208 75.823 178.385 75.47 178.738 C 75.117 179.091 74.94 179.648 74.94 180.408 C 74.94 180.815 74.983 181.155 75.07 181.428 C 75.163 181.708 75.287 181.931 75.44 182.098 C 75.6 182.265 75.783 182.385 75.99 182.458 C 76.203 182.531 76.433 182.568 76.68 182.568 ZM 85.43 178.698 L 85.43 184.958 C 85.31 184.998 85.143 185.031 84.93 185.058 C 84.71 185.091 84.47 185.108 84.21 185.108 C 83.67 185.108 83.28 185.018 83.04 184.838 C 82.8 184.665 82.68 184.328 82.68 183.828 L 82.68 178.338 C 82.68 177.998 82.763 177.708 82.93 177.468 C 83.097 177.228 83.33 177.018 83.63 176.838 C 84.03 176.598 84.507 176.411 85.06 176.278 C 85.62 176.138 86.207 176.068 86.82 176.068 C 88.067 176.068 88.69 176.488 88.69 177.328 C 88.69 177.535 88.66 177.721 88.6 177.888 C 88.54 178.055 88.473 178.198 88.4 178.318 C 88.127 178.258 87.79 178.228 87.39 178.228 C 87.043 178.228 86.697 178.271 86.35 178.358 C 86.003 178.438 85.697 178.551 85.43 178.698 ZM 98.464 180.638 C 98.464 181.345 98.357 181.985 98.144 182.558 C 97.924 183.125 97.614 183.608 97.214 184.008 C 96.814 184.401 96.331 184.708 95.764 184.928 C 95.197 185.141 94.567 185.248 93.874 185.248 C 93.181 185.248 92.547 185.141 91.974 184.928 C 91.407 184.721 90.921 184.421 90.514 184.028 C 90.114 183.628 89.807 183.145 89.594 182.578 C 89.374 182.005 89.264 181.358 89.264 180.638 C 89.264 179.945 89.377 179.311 89.604 178.738 C 89.824 178.171 90.134 177.688 90.534 177.288 C 90.934 176.895 91.421 176.591 91.994 176.378 C 92.561 176.158 93.187 176.048 93.874 176.048 C 94.561 176.048 95.184 176.158 95.744 176.378 C 96.311 176.591 96.794 176.898 97.194 177.298 C 97.594 177.705 97.907 178.188 98.134 178.748 C 98.354 179.315 98.464 179.945 98.464 180.638 Z M 93.874 178.208 C 93.307 178.208 92.871 178.418 92.564 178.838 C 92.251 179.258 92.094 179.858 92.094 180.638 C 92.094 181.445 92.247 182.055 92.554 182.468 C 92.861 182.881 93.301 183.088 93.874 183.088 C 94.447 183.088 94.887 182.878 95.194 182.458 C 95.501 182.038 95.654 181.431 95.654 180.638 C 95.654 179.871 95.497 179.275 95.184 178.848 C 94.877 178.421 94.441 178.208 93.874 178.208 ZM 108.454 183.178 C 108.454 183.745 108.207 184.178 107.714 184.478 C 107.334 184.718 106.861 184.905 106.294 185.038 C 105.727 185.178 105.104 185.248 104.424 185.248 C 103.777 185.248 103.187 185.178 102.654 185.038 C 102.127 184.905 101.677 184.688 101.304 184.388 C 100.924 184.088 100.627 183.708 100.414 183.248 C 100.207 182.795 100.104 182.245 100.104 181.598 L 100.104 176.358 C 100.237 176.318 100.411 176.281 100.624 176.248 C 100.837 176.215 101.077 176.198 101.344 176.198 C 101.884 176.198 102.271 176.288 102.504 176.468 C 102.737 176.648 102.854 176.988 102.854 177.488 L 102.854 181.578 C 102.854 182.118 102.994 182.505 103.274 182.738 C 103.547 182.971 103.937 183.088 104.444 183.088 C 104.751 183.088 105.011 183.061 105.224 183.008 C 105.431 182.955 105.591 182.898 105.704 182.838 L 105.704 176.358 C 105.824 176.318 105.991 176.281 106.204 176.248 C 106.417 176.215 106.657 176.198 106.924 176.198 C 107.464 176.198 107.854 176.288 108.094 176.468 C 108.334 176.648 108.454 176.988 108.454 177.488 L 108.454 183.178 ZM 114.812 185.248 C 114.499 185.248 114.209 185.221 113.942 185.168 C 113.682 185.115 113.442 185.045 113.222 184.958 L 113.222 188.178 C 113.102 188.218 112.935 188.255 112.722 188.288 C 112.502 188.328 112.262 188.348 112.002 188.348 C 111.462 188.348 111.072 188.258 110.832 188.078 C 110.592 187.898 110.472 187.555 110.472 187.048 L 110.472 178.138 C 110.472 177.825 110.539 177.568 110.672 177.368 C 110.799 177.175 110.982 176.998 111.222 176.838 C 111.582 176.611 112.045 176.425 112.612 176.278 C 113.179 176.125 113.802 176.048 114.482 176.048 C 115.182 176.048 115.822 176.135 116.402 176.308 C 116.982 176.481 117.482 176.755 117.902 177.128 C 118.322 177.501 118.649 177.975 118.882 178.548 C 119.115 179.128 119.232 179.815 119.232 180.608 C 119.232 181.361 119.122 182.028 118.902 182.608 C 118.682 183.195 118.372 183.681 117.972 184.068 C 117.579 184.461 117.112 184.755 116.572 184.948 C 116.032 185.148 115.445 185.248 114.812 185.248 Z M 114.392 183.068 C 115.039 183.068 115.542 182.865 115.902 182.458 C 116.255 182.051 116.432 181.435 116.432 180.608 C 116.432 179.755 116.259 179.141 115.912 178.768 C 115.572 178.395 115.095 178.208 114.482 178.208 C 114.209 178.208 113.969 178.241 113.762 178.308 C 113.562 178.375 113.375 178.451 113.202 178.538 L 113.202 182.768 C 113.375 182.861 113.555 182.935 113.742 182.988 C 113.935 183.041 114.152 183.068 114.392 183.068 Z" transform="matrix(1, 0, 0, 1, 72.58984375, 15.975260734558105)" style="fill: rgb(255, 255, 255); white-space: pre;"/>
</svg>